<mxfile host="app.diagrams.net" modified="2022-03-10T23:46:33.168Z" agent="5.0 (Windows NT 10.0; Win64; x64) AppleWebKit/537.36 (KHTML, like Gecko) Chrome/99.0.4844.51 Safari/537.36 Edg/99.0.1150.36" etag="FLGwP8sb0XxkxIEIjYlk" version="17.1.1" type="github">
  <diagram id="Gxx5-hNGT04NNxxz5u_X" name="Page-1">
    <mxGraphModel dx="782" dy="514" grid="1" gridSize="10" guides="1" tooltips="1" connect="1" arrows="1" fold="1" page="1" pageScale="1" pageWidth="827" pageHeight="1169" math="0" shadow="0">
      <root>
        <mxCell id="0" />
        <mxCell id="1" parent="0" />
        <mxCell id="Sz4i2vICpTw92tHPscwG-2" style="rounded=0;orthogonalLoop=1;jettySize=auto;html=1;fontSize=18;shape=link;" edge="1" parent="1" source="Sz4i2vICpTw92tHPscwG-1">
          <mxGeometry relative="1" as="geometry">
            <mxPoint x="230" y="190" as="targetPoint" />
          </mxGeometry>
        </mxCell>
        <mxCell id="Sz4i2vICpTw92tHPscwG-6" style="edgeStyle=none;shape=link;rounded=0;orthogonalLoop=1;jettySize=auto;html=1;entryX=0.5;entryY=1;entryDx=0;entryDy=0;fontSize=11;" edge="1" parent="1" source="Sz4i2vICpTw92tHPscwG-1" target="Sz4i2vICpTw92tHPscwG-4">
          <mxGeometry relative="1" as="geometry" />
        </mxCell>
        <mxCell id="Sz4i2vICpTw92tHPscwG-7" style="edgeStyle=none;shape=link;rounded=0;orthogonalLoop=1;jettySize=auto;html=1;entryX=0.5;entryY=0;entryDx=0;entryDy=0;fontSize=11;" edge="1" parent="1" source="Sz4i2vICpTw92tHPscwG-1" target="Sz4i2vICpTw92tHPscwG-5">
          <mxGeometry relative="1" as="geometry" />
        </mxCell>
        <mxCell id="Sz4i2vICpTw92tHPscwG-8" style="edgeStyle=none;shape=link;rounded=0;orthogonalLoop=1;jettySize=auto;html=1;fontSize=11;" edge="1" parent="1" source="Sz4i2vICpTw92tHPscwG-1">
          <mxGeometry relative="1" as="geometry">
            <mxPoint x="240" y="310" as="targetPoint" />
          </mxGeometry>
        </mxCell>
        <mxCell id="Sz4i2vICpTw92tHPscwG-1" value="&lt;font&gt;&lt;span style=&quot;font-size: 18px&quot;&gt;广告产品的业务链条&lt;br&gt;&lt;/span&gt;&lt;br&gt;&lt;font style=&quot;font-size: 11px&quot;&gt;用户使业务链条运转起来&lt;/font&gt;&lt;br&gt;&lt;/font&gt;" style="rounded=0;whiteSpace=wrap;html=1;" vertex="1" parent="1">
          <mxGeometry x="290" y="210" width="200" height="70" as="geometry" />
        </mxCell>
        <mxCell id="Sz4i2vICpTw92tHPscwG-31" style="edgeStyle=none;rounded=0;orthogonalLoop=1;jettySize=auto;html=1;entryX=1;entryY=0.5;entryDx=0;entryDy=0;fontSize=11;endArrow=open;endFill=0;" edge="1" parent="1" source="Sz4i2vICpTw92tHPscwG-3" target="Sz4i2vICpTw92tHPscwG-30">
          <mxGeometry relative="1" as="geometry" />
        </mxCell>
        <mxCell id="Sz4i2vICpTw92tHPscwG-3" value="广告主" style="rounded=0;whiteSpace=wrap;html=1;fontSize=18;" vertex="1" parent="1">
          <mxGeometry x="170" y="130" width="120" height="60" as="geometry" />
        </mxCell>
        <mxCell id="Sz4i2vICpTw92tHPscwG-4" value="第三方服务平台" style="rounded=0;whiteSpace=wrap;html=1;fontSize=18;" vertex="1" parent="1">
          <mxGeometry x="490" y="130" width="140" height="60" as="geometry" />
        </mxCell>
        <mxCell id="Sz4i2vICpTw92tHPscwG-20" value="" style="edgeStyle=none;rounded=0;orthogonalLoop=1;jettySize=auto;html=1;fontSize=18;endArrow=open;endFill=0;" edge="1" parent="1" source="Sz4i2vICpTw92tHPscwG-5" target="Sz4i2vICpTw92tHPscwG-19">
          <mxGeometry relative="1" as="geometry" />
        </mxCell>
        <mxCell id="Sz4i2vICpTw92tHPscwG-5" value="广告代理公司" style="rounded=0;whiteSpace=wrap;html=1;fontSize=18;" vertex="1" parent="1">
          <mxGeometry x="490" y="310" width="140" height="60" as="geometry" />
        </mxCell>
        <mxCell id="Sz4i2vICpTw92tHPscwG-9" value="&lt;font style=&quot;font-size: 18px&quot;&gt;媒体平台&lt;/font&gt;" style="rounded=0;whiteSpace=wrap;html=1;fontSize=11;" vertex="1" parent="1">
          <mxGeometry x="170" y="310" width="120" height="60" as="geometry" />
        </mxCell>
        <mxCell id="Sz4i2vICpTw92tHPscwG-11" value="" style="curved=1;endArrow=classic;html=1;rounded=0;fontSize=18;entryX=0.25;entryY=1;entryDx=0;entryDy=0;dashed=1;exitX=0.25;exitY=0;exitDx=0;exitDy=0;" edge="1" parent="1" source="Sz4i2vICpTw92tHPscwG-9" target="Sz4i2vICpTw92tHPscwG-3">
          <mxGeometry width="50" height="50" relative="1" as="geometry">
            <mxPoint x="110" y="280" as="sourcePoint" />
            <mxPoint x="160" y="230" as="targetPoint" />
            <Array as="points">
              <mxPoint x="160" y="250" />
            </Array>
          </mxGeometry>
        </mxCell>
        <mxCell id="Sz4i2vICpTw92tHPscwG-12" value="" style="curved=1;endArrow=classic;html=1;rounded=0;fontSize=18;entryX=0.25;entryY=1;entryDx=0;entryDy=0;dashed=1;exitX=0.25;exitY=0;exitDx=0;exitDy=0;" edge="1" parent="1">
          <mxGeometry width="50" height="50" relative="1" as="geometry">
            <mxPoint x="220" y="190" as="sourcePoint" />
            <mxPoint x="220" y="310" as="targetPoint" />
            <Array as="points">
              <mxPoint x="260" y="250" />
            </Array>
          </mxGeometry>
        </mxCell>
        <mxCell id="Sz4i2vICpTw92tHPscwG-14" value="博弈" style="text;html=1;strokeColor=none;fillColor=none;align=center;verticalAlign=middle;whiteSpace=wrap;rounded=0;fontSize=18;" vertex="1" parent="1">
          <mxGeometry x="180" y="230" width="60" height="30" as="geometry" />
        </mxCell>
        <mxCell id="Sz4i2vICpTw92tHPscwG-15" value="" style="curved=1;endArrow=classic;html=1;rounded=0;fontSize=18;entryX=0.593;entryY=-0.017;entryDx=0;entryDy=0;dashed=1;exitX=0.25;exitY=0;exitDx=0;exitDy=0;entryPerimeter=0;" edge="1" parent="1" target="Sz4i2vICpTw92tHPscwG-5">
          <mxGeometry width="50" height="50" relative="1" as="geometry">
            <mxPoint x="220" y="130" as="sourcePoint" />
            <mxPoint x="220" y="10" as="targetPoint" />
            <Array as="points">
              <mxPoint x="380" y="40" />
            </Array>
          </mxGeometry>
        </mxCell>
        <mxCell id="Sz4i2vICpTw92tHPscwG-17" value="合作、低价" style="edgeLabel;html=1;align=center;verticalAlign=middle;resizable=0;points=[];fontSize=18;" vertex="1" connectable="0" parent="Sz4i2vICpTw92tHPscwG-15">
          <mxGeometry x="0.0008" y="-49" relative="1" as="geometry">
            <mxPoint y="-1" as="offset" />
          </mxGeometry>
        </mxCell>
        <mxCell id="Sz4i2vICpTw92tHPscwG-16" value="" style="curved=1;endArrow=classic;html=1;rounded=0;fontSize=18;entryX=0.5;entryY=1;entryDx=0;entryDy=0;dashed=1;exitX=0.5;exitY=1;exitDx=0;exitDy=0;" edge="1" parent="1" source="Sz4i2vICpTw92tHPscwG-5">
          <mxGeometry width="50" height="50" relative="1" as="geometry">
            <mxPoint x="590.02" y="548.98" as="sourcePoint" />
            <mxPoint x="237" y="370" as="targetPoint" />
            <Array as="points">
              <mxPoint x="390" y="500" />
            </Array>
          </mxGeometry>
        </mxCell>
        <mxCell id="Sz4i2vICpTw92tHPscwG-18" value="批量买卖" style="edgeLabel;html=1;align=center;verticalAlign=middle;resizable=0;points=[];fontSize=18;" vertex="1" connectable="0" parent="Sz4i2vICpTw92tHPscwG-16">
          <mxGeometry x="0.2609" y="-44" relative="1" as="geometry">
            <mxPoint y="-1" as="offset" />
          </mxGeometry>
        </mxCell>
        <mxCell id="Sz4i2vICpTw92tHPscwG-19" value="&lt;font style=&quot;font-size: 11px&quot;&gt;跨国广告代理公司&lt;/font&gt;" style="ellipse;whiteSpace=wrap;html=1;fontSize=18;rounded=0;" vertex="1" parent="1">
          <mxGeometry x="690" y="260" width="120" height="60" as="geometry" />
        </mxCell>
        <mxCell id="Sz4i2vICpTw92tHPscwG-21" value="&lt;font style=&quot;font-size: 11px&quot;&gt;跨国广告代理公司&lt;/font&gt;" style="ellipse;whiteSpace=wrap;html=1;fontSize=18;rounded=0;" vertex="1" parent="1">
          <mxGeometry x="690" y="350" width="120" height="60" as="geometry" />
        </mxCell>
        <mxCell id="Sz4i2vICpTw92tHPscwG-22" value="" style="rounded=0;orthogonalLoop=1;jettySize=auto;html=1;fontSize=18;endArrow=open;endFill=0;entryX=0;entryY=0.5;entryDx=0;entryDy=0;exitX=1;exitY=0.75;exitDx=0;exitDy=0;" edge="1" parent="1" source="Sz4i2vICpTw92tHPscwG-5" target="Sz4i2vICpTw92tHPscwG-21">
          <mxGeometry relative="1" as="geometry">
            <mxPoint x="640" y="331.57894736842104" as="sourcePoint" />
            <mxPoint x="706.9049066570774" y="313.9723929849797" as="targetPoint" />
          </mxGeometry>
        </mxCell>
        <mxCell id="Sz4i2vICpTw92tHPscwG-23" value="&lt;font style=&quot;font-size: 11px&quot;&gt;跨国广告代理公司&lt;/font&gt;" style="ellipse;whiteSpace=wrap;html=1;fontSize=18;rounded=0;" vertex="1" parent="1">
          <mxGeometry x="690" y="260" width="120" height="60" as="geometry" />
        </mxCell>
        <mxCell id="Sz4i2vICpTw92tHPscwG-24" value="" style="edgeStyle=none;rounded=0;orthogonalLoop=1;jettySize=auto;html=1;fontSize=18;endArrow=open;endFill=0;entryX=1;entryY=0.5;entryDx=0;entryDy=0;" edge="1" parent="1" target="Sz4i2vICpTw92tHPscwG-25">
          <mxGeometry relative="1" as="geometry">
            <mxPoint x="170" y="341.57894736842104" as="sourcePoint" />
            <mxPoint x="236.9049066570774" y="323.9723929849797" as="targetPoint" />
          </mxGeometry>
        </mxCell>
        <mxCell id="Sz4i2vICpTw92tHPscwG-25" value="&lt;font style=&quot;font-size: 11px&quot;&gt;保证用户体验&lt;/font&gt;" style="ellipse;whiteSpace=wrap;html=1;fontSize=18;rounded=0;" vertex="1" parent="1">
          <mxGeometry x="20" y="310" width="120" height="60" as="geometry" />
        </mxCell>
        <mxCell id="Sz4i2vICpTw92tHPscwG-28" value="" style="edgeStyle=none;rounded=0;orthogonalLoop=1;jettySize=auto;html=1;fontSize=18;endArrow=open;endFill=0;entryX=1;entryY=0.5;entryDx=0;entryDy=0;" edge="1" parent="1" target="Sz4i2vICpTw92tHPscwG-29">
          <mxGeometry relative="1" as="geometry">
            <mxPoint x="172" y="143.57894736842104" as="sourcePoint" />
            <mxPoint x="238.9049066570774" y="125.9723929849797" as="targetPoint" />
          </mxGeometry>
        </mxCell>
        <mxCell id="Sz4i2vICpTw92tHPscwG-29" value="&lt;font style=&quot;font-size: 11px&quot;&gt;大型企业&lt;/font&gt;" style="ellipse;whiteSpace=wrap;html=1;fontSize=18;rounded=0;" vertex="1" parent="1">
          <mxGeometry x="20" y="90" width="120" height="60" as="geometry" />
        </mxCell>
        <mxCell id="Sz4i2vICpTw92tHPscwG-30" value="&lt;font style=&quot;font-size: 11px&quot;&gt;中小型企业&lt;/font&gt;" style="ellipse;whiteSpace=wrap;html=1;fontSize=18;rounded=0;" vertex="1" parent="1">
          <mxGeometry x="20" y="150" width="120" height="60" as="geometry" />
        </mxCell>
      </root>
    </mxGraphModel>
  </diagram>
</mxfile>
